<svg xmlns="http://www.w3.org/2000/svg" width="51.004" height="48.973" viewBox="0 0 51.004 48.973"><defs><style>.a{fill:#fff;}</style></defs><g transform="translate(-992.591 -826.803)"><g transform="translate(992.591 826.803)"><path class="a" d="M1034.623,847.746v-1.464l-2.1,2.1a5.771,5.771,0,0,1-4.109,1.7h-1.257v4.521l4.8-2.18Z" transform="translate(-998.56 -830.167)"/><path class="a" d="M1024.454,850.883h-3.32v1.66h3.32Z" transform="translate(-997.521 -830.962)"/><path class="a" d="M1024.143,869.6l.692-.347a2.428,2.428,0,0,1,1.863-.132l.1.032a2.437,2.437,0,0,1,1.667,2.371l1.722-3.017a6.118,6.118,0,0,0,.243-5.584,7.766,7.766,0,0,1-.707-3.01l-4.021-1.005h-.041a2.453,2.453,0,0,1,.143.83v1.66a2.493,2.493,0,0,1-1.66,2.347V869.6Z" transform="translate(-998.041 -832.349)"/><path class="a" d="M1024.4,837.8l.62-4.952c-.237-.018-.476-.028-.716-.028h-3.32c-.242,0-.48.01-.717.028l.619,4.952Z" transform="translate(-997.371 -827.843)"/><path class="a" d="M1027.871,833.2l-.584,4.672h6.361A9.168,9.168,0,0,0,1027.871,833.2Z" transform="translate(-998.584 -827.907)"/><path class="a" d="M1017.082,833.2a9.173,9.173,0,0,0-5.778,4.672h6.362Z" transform="translate(-995.823 -827.907)"/><path class="a" d="M1011.646,882.383l-.324.4a1.014,1.014,0,0,0,.792,1.646h8.117v-4.907l-6.053-2.595A12.658,12.658,0,0,1,1011.646,882.383Z" transform="translate(-995.788 -835.461)"/><path class="a" d="M1016.311,847.49h9.155a4.121,4.121,0,0,0,2.935-1.215l3.272-3.272a9.107,9.107,0,0,0-.339-2.153h-20.891a9.119,9.119,0,0,0-.338,2.153l3.271,3.272A4.124,4.124,0,0,0,1016.311,847.49Z" transform="translate(-995.616 -829.229)"/><path class="a" d="M1012.53,852.32l5.037,2.29v-4.521h-1.258a5.769,5.769,0,0,1-4.108-1.7l-2.1-2.1v2.26A4.157,4.157,0,0,0,1012.53,852.32Z" transform="translate(-995.615 -830.167)"/><path class="a" d="M1033.367,855.016a6.123,6.123,0,0,0-.243,5.584,7.78,7.78,0,0,1-.308,7.1l-1.79,3.135a3.235,3.235,0,0,1,.476.606l.822.469,1.372-2.4a2.49,2.49,0,0,1,.517-2.149l2.128-2.548a2.491,2.491,0,0,1,3.508-.315l.2.17c.055-.007.109-.014.164-.019a6.119,6.119,0,0,0,4.685-3.048l3.168-5.549-11.533-6.585Zm2.016,7.378a9.5,9.5,0,0,0-.366-1.514l1.576-.522a11.158,11.158,0,0,1,.43,1.781Zm2.8-9.118-1.934,3.387a2.771,2.771,0,0,0-.28,2.071l-1.609.41a4.431,4.431,0,0,1,.447-3.3l1.934-3.387Z" transform="translate(-999.229 -830.717)"/><path class="a" d="M1040.311,869.669l-.637-.532a.83.83,0,0,0-1.17.1l-2.129,2.549a.83.83,0,0,0,.1,1.169l.637.532a1.659,1.659,0,0,0,2.339-.21l1.065-1.274a1.66,1.66,0,0,0-.21-2.338Z" transform="translate(-1000.12 -834.081)"/><path class="a" d="M1012.414,863.89h1.66v2.758l5.811,2.324v-5.225a2.494,2.494,0,0,1-1.66-2.347v-1.66a2.465,2.465,0,0,1,.143-.83h-.04l-4.832,1.208a5.8,5.8,0,0,0-4.4,5.637,6.4,6.4,0,0,0,3.886,5.894l6.4,2.744,1.126-3.382-8.095-3.239V863.89Z" transform="translate(-995.441 -832.349)"/><rect class="a" width="3.32" height="1.66" transform="translate(23.613 23.241)"/><path class="a" d="M1034.435,880.04l-2.446-1.4a3.22,3.22,0,0,1-.664,1.532l2.288,1.306Z" transform="translate(-999.281 -835.757)"/><path class="a" d="M1033,883.4a1.654,1.654,0,0,1-1.451-.094l-2.958-1.688a3.243,3.243,0,0,1-1.049.175h-.444a3.232,3.232,0,0,1-1.2-.232l-1.75-.7v4.252h8.117a1.014,1.014,0,0,0,.792-1.646Z" transform="translate(-998.041 -836.14)"/><path class="a" d="M1026.968,878.793h.444a1.582,1.582,0,0,0,.5-3.082l-1.749-.583.428-.857a.779.779,0,0,0-.451-1.088l-.1-.032a.771.771,0,0,0-.595.042l-.756.378-1.3,3.911,2.992,1.2A1.569,1.569,0,0,0,1026.968,878.793Z" transform="translate(-997.91 -834.801)"/><path class="a" d="M1023.8,861.4v-1.66a.83.83,0,1,0-1.659,0v1.66a.83.83,0,1,0,1.659,0Z" transform="translate(-997.694 -832.349)"/><path class="a" d="M1002.325,855.042a4.279,4.279,0,0,0-2.929-4.065l-.127-.042-.525,1.574.127.043a2.621,2.621,0,0,1,1.8,2.49Z" transform="translate(-993.654 -830.971)"/><circle class="a" cx="1.66" cy="1.66" r="1.66" transform="translate(0.371 17.431)"/><path class="a" d="M998.5,831.482l.127-.043-.524-1.574-.128.042a4.279,4.279,0,0,0-2.929,4.065h1.66A2.619,2.619,0,0,1,998.5,831.482Z" transform="translate(-993.015 -827.332)"/><circle class="a" cx="1.66" cy="1.66" r="1.66" transform="translate(7.012)"/><path class="a" d="M1042.806,833.973h1.659a4.279,4.279,0,0,0-2.929-4.065l-.128-.042-.525,1.574.127.043A2.621,2.621,0,0,1,1042.806,833.973Z" transform="translate(-1000.932 -827.332)"/><circle class="a" cx="1.66" cy="1.66" r="1.66" transform="translate(35.233)"/><path class="a" d="M998.076,843.332l1.628.326.1-.51a6.718,6.718,0,0,1,3.605-4.72l-.742-1.485a8.367,8.367,0,0,0-4.49,5.88Z" transform="translate(-993.539 -828.554)"/><path class="a" d="M996.973,870.04a4.281,4.281,0,0,0-2.93,4.065h1.66a2.621,2.621,0,0,1,1.8-2.49l.127-.042L997.1,870Z" transform="translate(-992.842 -834.264)"/><path class="a" d="M993.334,856.006l-.743,1.484a6.718,6.718,0,0,1,3.606,4.72l.1.51,1.628-.325-.1-.51A8.366,8.366,0,0,0,993.334,856.006Z" transform="translate(-992.591 -831.847)"/><path class="a" d="M1050.566,836.93l-.129-.042-.524,1.575.128.042a2.622,2.622,0,0,1,1.795,2.49h1.66A4.281,4.281,0,0,0,1050.566,836.93Z" transform="translate(-1002.492 -828.545)"/><path class="a" d="M1043.761,843.444a6.719,6.719,0,0,1,3.606,4.72l.1.51,1.628-.326-.1-.51a8.366,8.366,0,0,0-4.49-5.879Z" transform="translate(-1001.429 -829.421)"/><path class="a" d="M1001.36,876.072l-.742,1.485a6.716,6.716,0,0,1,3.605,4.721l.1.51,1.627-.326-.1-.51A8.365,8.365,0,0,0,1001.36,876.072Z" transform="translate(-993.977 -835.313)"/></g></g></svg>