<svg xmlns="http://www.w3.org/2000/svg" width="24.185" height="23.405" viewBox="0 0 24.185 23.405"><defs><style>.a{fill:#fff;fill-rule:evenodd;}</style></defs><g transform="translate(-271.667 -51.025)"><path class="a" d="M295.853,62.235l-.957-9.073-2.387,1.72a8.809,8.809,0,0,0-2.477-2.1,15.164,15.164,0,0,0-4.005-1.538,12.952,12.952,0,0,0-4.195-.092,11.7,11.7,0,0,0-4.005,1.34,12.679,12.679,0,0,0-3.252,2.68,10.9,10.9,0,0,0-2.189,3.622,11.524,11.524,0,0,0,0,8.008,11.1,11.1,0,0,0,5.046,6.12,10.88,10.88,0,0,0,3.823,1.324,10.567,10.567,0,0,0,3.913,0,11.175,11.175,0,0,0,6.582-3.912,11.964,11.964,0,0,0,1.809-3.425,9.832,9.832,0,0,0,.57-3.73,10.378,10.378,0,0,1-.76,3.73,13.173,13.173,0,0,1-1.908,3.135,10.669,10.669,0,0,1-6.482,3.349,11,11,0,0,1-3.534-.107,9.533,9.533,0,0,1-3.336-1.416,10.442,10.442,0,0,1-4.195-5.541,9.739,9.739,0,0,1,.471-6.774,9.245,9.245,0,0,1,4.582-4.765,12.422,12.422,0,0,1,3.146-.959,12.691,12.691,0,0,1,3.336.289,9.891,9.891,0,0,1,4.385,2.665L287.455,58.6Z" transform="translate(0 0)"/></g></svg>